<svg width="16" height="17" viewBox="0 0 16 17" fill="none" xmlns="http://www.w3.org/2000/svg">
<path fill-rule="evenodd" clip-rule="evenodd" d="M8.01869 7.44983C7.56586 7.44983 7.1744 7.82657 7.1744 8.32192C7.1744 8.81727 7.56586 9.19402 8.01869 9.19402C8.47152 9.19402 8.86369 8.81727 8.86369 8.32192C8.86369 7.82657 8.47222 7.44983 8.01869 7.44983ZM6.11638 8.32192C6.11638 7.27541 6.95504 6.40332 8.01869 6.40332C9.08235 6.40332 9.9217 7.27541 9.9217 8.32192C9.9217 9.36843 9.08235 10.2405 8.01869 10.2405C6.95504 10.2405 6.11638 9.36843 6.11638 8.32192ZM10.098 12.8568C9.02592 11.6729 7.02275 11.7126 5.94287 12.8638C5.84747 12.9655 5.7151 13.0257 5.57488 13.0309C5.43467 13.0361 5.2981 12.9861 5.19521 12.8917C5.09232 12.7973 5.03155 12.6664 5.02626 12.5277C5.02096 12.389 5.07159 12.2539 5.16699 12.1522C6.64539 10.5768 9.37365 10.4889 10.8866 12.1591C10.9792 12.2627 11.0266 12.3983 11.0184 12.5363C11.0102 12.6743 10.9471 12.8035 10.8429 12.8957C10.7388 12.9879 10.602 13.0355 10.4624 13.0282C10.3228 13.0209 10.1918 12.9593 10.098 12.8568Z" fill="#8C8C8C" stroke="#8C8C8C" stroke-width="0.5"/>
<path fill-rule="evenodd" clip-rule="evenodd" d="M6.79006 2.73894C6.79034 2.80765 6.77693 2.87575 6.7506 2.93934C6.72428 3.00293 6.68554 3.06077 6.63662 3.10955C6.58769 3.15833 6.52953 3.19711 6.46545 3.22366C6.40138 3.25021 6.33264 3.26401 6.26317 3.26429C5.32507 3.26778 4.65076 3.28661 4.13586 3.37103C3.63436 3.45406 3.336 3.5915 3.11594 3.79801C2.87401 4.02475 2.72447 4.33522 2.64336 4.90243C2.55872 5.48708 2.55801 6.2608 2.55801 7.36731V10.6715C2.55801 11.778 2.55942 12.5517 2.64265 13.1364C2.72447 13.7029 2.87401 14.014 3.11523 14.2408C3.3621 14.471 3.7056 14.6168 4.32419 14.6943C4.95547 14.7745 5.78848 14.7752 6.9664 14.7752H9.08242C10.2603 14.7752 11.0934 14.7745 11.7246 14.695C12.3432 14.6168 12.6867 14.4717 12.9329 14.2415C13.1748 14.014 13.3243 13.7029 13.4055 13.1364C13.4901 12.5517 13.4908 11.778 13.4908 10.6715V7.36801C13.4908 6.26149 13.4894 5.48777 13.4062 4.90312C13.3243 4.33661 13.1748 4.02545 12.9336 3.79871C12.7128 3.5922 12.4145 3.45475 11.913 3.37173C11.3981 3.28731 10.7238 3.26847 9.78565 3.26499C9.64535 3.26443 9.51101 3.20877 9.4122 3.11025C9.31339 3.01173 9.2582 2.87841 9.25876 2.73964C9.25932 2.60086 9.31559 2.46799 9.4152 2.37025C9.5148 2.27252 9.64958 2.21792 9.78988 2.21848C10.7167 2.22196 11.4742 2.23941 12.0865 2.33987C12.7114 2.44243 13.2348 2.63987 13.6608 3.03894C14.1418 3.48964 14.3534 4.06243 14.4529 4.75522C14.5488 5.42289 14.5488 6.27126 14.5488 7.32754V10.7127C14.5488 11.7689 14.5488 12.6173 14.4529 13.2843C14.3541 13.9778 14.1418 14.5506 13.6608 15.0013C13.1833 15.4485 12.5837 15.6424 11.8579 15.7338C11.1526 15.8224 10.2519 15.8224 9.1198 15.8224H6.92901C5.79694 15.8224 4.89622 15.8224 4.19088 15.7338C3.46438 15.6424 2.86484 15.4485 2.38802 15.0013C1.90698 14.5506 1.69538 13.9778 1.59593 13.285C1.5 12.6173 1.5 11.7689 1.5 10.7134V7.32615C1.5 6.27057 1.5 5.4215 1.59593 4.75522C1.69467 4.06173 1.90698 3.48894 2.38802 3.03824C2.81405 2.63917 3.33741 2.44173 3.96235 2.33917C4.57458 2.23801 5.33212 2.22127 6.25894 2.21778C6.32841 2.2175 6.39725 2.23076 6.46154 2.25681C6.52583 2.28285 6.5843 2.32116 6.63362 2.36955C6.68294 2.41795 6.72214 2.47548 6.74898 2.53886C6.77583 2.60224 6.78978 2.67022 6.79006 2.73894Z" fill="#8C8C8C" stroke="#8C8C8C" stroke-width="0.5"/>
<path fill-rule="evenodd" clip-rule="evenodd" d="M7.9712 0.822266H8.07841C8.35702 0.822266 8.58132 0.822266 8.78376 0.868312C9.2521 0.974359 9.66402 1.2632 9.89467 1.6818C9.99483 1.86459 10.0442 2.07668 10.0992 2.31389L10.1119 2.36622L10.1705 2.61738L10.1761 2.6418C10.2311 2.87692 10.2819 3.09319 10.3038 3.27459C10.3277 3.46924 10.3292 3.69389 10.2262 3.91854C10.1204 4.14877 9.94545 4.33575 9.73244 4.46412C9.53071 4.58482 9.31276 4.62459 9.10892 4.64273C8.91424 4.65947 8.67372 4.65947 8.39793 4.65947H7.65168C7.3766 4.65947 7.13537 4.65947 6.9407 4.64273C6.73615 4.62529 6.5189 4.58482 6.31788 4.46412C6.10132 4.33562 5.92899 4.14547 5.82344 3.91854C5.72046 3.69389 5.72187 3.46924 5.74585 3.27459C5.76772 3.09319 5.8185 2.87692 5.87352 2.6418L5.87916 2.61738L5.9377 2.36622L5.9504 2.31389C6.00542 2.07668 6.05479 1.86459 6.15495 1.6818C6.38559 1.2632 6.79751 0.974359 7.26516 0.868312C7.46829 0.822266 7.69259 0.822266 7.9712 0.822266ZM8.02481 1.86878C7.66508 1.86878 7.57339 1.87226 7.50286 1.88831C7.41625 1.90538 7.33425 1.9403 7.26219 1.99078C7.19012 2.04127 7.12961 2.10619 7.08459 2.18133C7.06272 2.2218 7.04368 2.2811 6.96891 2.60203L6.91037 2.85319C6.86377 3.03368 6.82564 3.2162 6.7961 3.40017C6.79148 3.43134 6.78982 3.46288 6.79117 3.49436C6.8091 3.52566 6.83515 3.55167 6.86664 3.56971H6.86805L6.87228 3.5718C6.92485 3.58619 6.97871 3.59554 7.0331 3.59971C7.17628 3.61226 7.36955 3.61296 7.67355 3.61296H8.37607C8.68007 3.61296 8.87333 3.61296 9.01652 3.6004C9.07114 3.59628 9.12524 3.58693 9.17804 3.5725L9.18157 3.5704C9.2134 3.55228 9.24042 3.52601 9.25845 3.49436C9.25979 3.46288 9.25814 3.43134 9.25351 3.40017C9.22398 3.2162 9.18585 3.03368 9.13925 2.85319L9.0807 2.60203C9.00594 2.2811 8.98689 2.2218 8.96503 2.18133C8.92 2.10619 8.85949 2.04127 8.78743 1.99078C8.71537 1.9403 8.63336 1.90538 8.54676 1.88831C8.47623 1.87226 8.38453 1.86878 8.02481 1.86878Z" fill="#8C8C8C"/>
<path d="M9.25775 3.50133V3.49924M6.79187 3.50133V3.49924M7.9712 0.822266H8.07841C8.35702 0.822266 8.58132 0.822266 8.78376 0.868312C9.2521 0.974359 9.66402 1.2632 9.89467 1.6818C9.99483 1.86459 10.0442 2.07668 10.0992 2.31389L10.1119 2.36622L10.1705 2.61738L10.1761 2.6418C10.2311 2.87692 10.2819 3.09319 10.3038 3.27459C10.3277 3.46924 10.3292 3.69389 10.2262 3.91854C10.1204 4.14877 9.94545 4.33575 9.73244 4.46412C9.53071 4.58482 9.31276 4.62459 9.10892 4.64273C8.91424 4.65947 8.67372 4.65947 8.39793 4.65947H7.65168C7.3766 4.65947 7.13537 4.65947 6.9407 4.64273C6.73615 4.62529 6.5189 4.58482 6.31788 4.46412C6.10132 4.33562 5.92899 4.14547 5.82344 3.91854C5.72046 3.69389 5.72187 3.46924 5.74585 3.27459C5.76772 3.09319 5.8185 2.87692 5.87352 2.6418L5.87916 2.61738L5.9377 2.36622L5.9504 2.31389C6.00542 2.07668 6.05479 1.86459 6.15495 1.6818C6.38559 1.2632 6.79751 0.974359 7.26516 0.868312C7.46829 0.822266 7.69259 0.822266 7.9712 0.822266ZM8.02481 1.86878C7.66508 1.86878 7.57339 1.87226 7.50286 1.88831C7.41625 1.90538 7.33425 1.9403 7.26219 1.99078C7.19012 2.04127 7.12961 2.10619 7.08459 2.18133C7.06272 2.2218 7.04368 2.2811 6.96891 2.60203L6.91037 2.85319C6.86377 3.03368 6.82564 3.2162 6.7961 3.40017C6.79148 3.43134 6.78982 3.46288 6.79117 3.49436C6.8091 3.52566 6.83515 3.55167 6.86664 3.56971H6.86805L6.87228 3.5718C6.92485 3.58619 6.97871 3.59554 7.0331 3.59971C7.17628 3.61226 7.36955 3.61296 7.67355 3.61296H8.37607C8.68007 3.61296 8.87333 3.61296 9.01652 3.6004C9.07114 3.59628 9.12524 3.58693 9.17804 3.5725L9.18157 3.5704C9.2134 3.55228 9.24042 3.52601 9.25845 3.49436C9.25979 3.46288 9.25814 3.43134 9.25351 3.40017C9.22398 3.2162 9.18585 3.03368 9.13925 2.85319L9.0807 2.60203C9.00594 2.2811 8.98689 2.2218 8.96503 2.18133C8.92 2.10619 8.85949 2.04127 8.78743 1.99078C8.71537 1.9403 8.63336 1.90538 8.54676 1.88831C8.47623 1.87226 8.38453 1.86878 8.02481 1.86878Z" stroke="#8C8C8C" stroke-width="0.5"/>
</svg>
