<svg width="16" height="17" viewBox="0 0 16 17" fill="none" xmlns="http://www.w3.org/2000/svg">
<path d="M8 2.16663C8.78407 2.16639 9.54756 2.41749 10.1784 2.88307C10.8093 3.34866 11.2743 4.00421 11.5052 4.75351C11.7361 5.5028 11.7207 6.30639 11.4613 7.0463C11.2019 7.78622 10.7122 8.42351 10.064 8.86463C11.1891 9.27729 12.165 10.0172 12.8659 10.9892C13.5669 11.9612 13.961 13.1208 13.9973 14.3186C14.0007 14.3851 13.9908 14.4516 13.9682 14.5142C13.9455 14.5768 13.9106 14.6343 13.8655 14.6832C13.8203 14.7321 13.7659 14.7716 13.7053 14.7992C13.6447 14.8268 13.5792 14.842 13.5127 14.8439C13.4461 14.8459 13.3798 14.8345 13.3177 14.8105C13.2556 14.7865 13.199 14.7504 13.151 14.7042C13.1031 14.658 13.0649 14.6027 13.0386 14.5415C13.0123 14.4803 12.9985 14.4145 12.998 14.348C12.9583 13.0489 12.4144 11.8164 11.4814 10.9116C10.5485 10.0067 9.29997 9.50069 8.00033 9.50069C6.7007 9.50069 5.45213 10.0067 4.51922 10.9116C3.58631 11.8164 3.04237 13.0489 3.00267 14.348C2.99869 14.4806 2.94219 14.6062 2.84561 14.6971C2.74903 14.7881 2.62027 14.8369 2.48767 14.833C2.35506 14.829 2.22946 14.7725 2.13851 14.6759C2.04755 14.5793 1.99869 14.4506 2.00267 14.318C2.03917 13.1202 2.43326 11.9608 3.13424 10.989C3.83522 10.0171 4.811 9.27725 5.936 8.86463C5.28779 8.42351 4.79805 7.78622 4.53867 7.0463C4.27928 6.30639 4.26391 5.5028 4.49481 4.75351C4.7257 4.00421 5.19071 3.34866 5.82157 2.88307C6.45244 2.41749 7.21593 2.16639 8 2.16663ZM5.33333 5.83329C5.33333 6.54054 5.61428 7.21881 6.11438 7.71891C6.61448 8.21901 7.29276 8.49996 8 8.49996C8.70724 8.49996 9.38552 8.21901 9.88562 7.71891C10.3857 7.21881 10.6667 6.54054 10.6667 5.83329C10.6667 5.12605 10.3857 4.44777 9.88562 3.94767C9.38552 3.44758 8.70724 3.16663 8 3.16663C7.29276 3.16663 6.61448 3.44758 6.11438 3.94767C5.61428 4.44777 5.33333 5.12605 5.33333 5.83329Z" fill="#5E6B85" stroke="#5E6B85" stroke-width="0.7"/>
</svg>
