<svg width="22" height="22" viewBox="0 0 22 22" fill="none" xmlns="http://www.w3.org/2000/svg">
<path d="M21.669 9.25698L11.669 0.256982C11.4854 0.0916998 11.2471 0.000244141 11 0.000244141C10.7529 0.000244141 10.5146 0.0916998 10.331 0.256982L0.331 9.25698C0.139945 9.43597 0.0266975 9.68273 0.0155784 9.94429C0.00445927 10.2059 0.0963552 10.4613 0.271531 10.6559C0.446707 10.8505 0.691192 10.9685 0.952481 10.9848C1.21377 11.0011 1.47103 10.9143 1.669 10.743L11 2.34498L20.331 10.745C20.529 10.9163 20.7862 11.0031 21.0475 10.9868C21.3088 10.9705 21.5533 10.8525 21.7285 10.6579C21.9036 10.4633 21.9955 10.2079 21.9844 9.94629C21.9733 9.68473 21.8601 9.43797 21.669 9.25898V9.25698ZM19 12C18.7348 12 18.4804 12.1053 18.2929 12.2929C18.1054 12.4804 18 12.7348 18 13V18.774C17.9997 19.0991 17.8705 19.4107 17.6406 19.6406C17.4108 19.8705 17.0991 19.9997 16.774 20H5.226C4.90093 19.9997 4.58924 19.8705 4.35938 19.6406C4.12952 19.4107 4.00026 19.0991 4 18.774V13C4 12.7348 3.89464 12.4804 3.70711 12.2929C3.51957 12.1053 3.26522 12 3 12C2.73478 12 2.48043 12.1053 2.29289 12.2929C2.10536 12.4804 2 12.7348 2 13V18.774C2.00079 19.6293 2.34093 20.4494 2.94575 21.0542C3.55057 21.659 4.37066 21.9992 5.226 22H16.774C17.6293 21.9992 18.4494 21.659 19.0542 21.0542C19.6591 20.4494 19.9992 19.6293 20 18.774V13C20 12.7348 19.8946 12.4804 19.7071 12.2929C19.5196 12.1053 19.2652 12 19 12Z" fill="#2DE3E0"/>
</svg>
